<svg width="1440" height="820" viewBox="0 0 1440 820" fill="none" xmlns="http://www.w3.org/2000/svg">
<rect x="541" y="140" width="358" height="540" fill="#202024"/>
<mask id="mask0_" style="mask-type:alpha" maskUnits="userSpaceOnUse" x="541" y="140" width="358" height="540">
<rect x="541" y="140" width="358" height="540" fill="#202024"/>
</mask>
<g mask="url(#mask0_)">
<path d="M899 201.492V-256.824L719.5 -360L540 -256.824V201.492L719.5 304.674L899 201.492Z" fill="url(#paint0_linear_)"/>
<g style="mix-blend-mode:luminosity" opacity="0.4">
<path d="M541.801 99.3496V202.159L631.101 253.569L720.4 202.159V99.3496L631.101 47.9399L541.801 99.3496Z" fill="url(#paint1_linear_)"/>
<path d="M541.801 -3.46506V99.3445L631.101 150.754L720.4 99.3445V-3.46506L631.101 -54.8747L541.801 -3.46506Z" fill="url(#paint2_linear_)"/>
<path d="M720.4 202.159V99.3492L809.7 47.9395L899 99.3492V202.159L809.7 253.568L720.4 202.159Z" fill="url(#paint3_linear_)"/>
<path d="M899 -3.46506V99.3445L809.7 150.754L720.4 99.3445V-3.46506L809.7 -54.8747L899 -3.46506Z" fill="url(#paint4_linear_)"/>
<path d="M809.7 253.59V150.781L720.4 99.3711L631.101 150.781V253.59L720.4 305L809.7 253.59Z" fill="url(#paint5_linear_)"/>
</g>
</g>
<defs>
<linearGradient id="paint0_linear_" x1="540" y1="-344.234" x2="979.976" y2="-283.679" gradientUnits="userSpaceOnUse">
<stop stop-color="#FF008E"/>
<stop offset="1" stop-color="#FFCD1E"/>
</linearGradient>
<linearGradient id="paint1_linear_" x1="631.101" y1="248.84" x2="542.185" y2="97.1039" gradientUnits="userSpaceOnUse">
<stop stop-color="#8257E5"/>
<stop offset="1" stop-color="#FF008E" stop-opacity="0"/>
</linearGradient>
<linearGradient id="paint2_linear_" x1="631.101" y1="146.026" x2="542.185" y2="-5.71074" gradientUnits="userSpaceOnUse">
<stop stop-color="#8257E5"/>
<stop offset="1" stop-color="#FF008E" stop-opacity="0"/>
</linearGradient>
<linearGradient id="paint3_linear_" x1="899" y1="207.937" x2="720.676" y2="100.328" gradientUnits="userSpaceOnUse">
<stop stop-color="#FF008E" stop-opacity="0"/>
<stop offset="1" stop-color="#FFCD1E"/>
</linearGradient>
<linearGradient id="paint4_linear_" x1="809.7" y1="146.026" x2="898.615" y2="-5.71073" gradientUnits="userSpaceOnUse">
<stop stop-color="#8257E5"/>
<stop offset="1" stop-color="#FF008E" stop-opacity="0"/>
</linearGradient>
<linearGradient id="paint5_linear_" x1="720.4" y1="104.099" x2="809.316" y2="255.836" gradientUnits="userSpaceOnUse">
<stop stop-color="#8257E5"/>
<stop offset="1" stop-color="#FF008E" stop-opacity="0"/>
</linearGradient>
</defs>
</svg>
